<mxfile host="app.diagrams.net" modified="2024-06-24T16:07:32.008Z" agent="Mozilla/5.0 (Macintosh; Intel Mac OS X 10.15; rv:127.0) Gecko/20100101 Firefox/127.0" etag="ZikcWmYMHJgrMkkVK26A" version="24.6.2" type="github">
  <diagram id="ZiGBoNMsNe7guero7BJ2" name="Page-1">
    <mxGraphModel dx="2074" dy="1129" grid="1" gridSize="10" guides="1" tooltips="1" connect="1" arrows="1" fold="1" page="1" pageScale="1" pageWidth="827" pageHeight="1169" math="0" shadow="0">
      <root>
        <mxCell id="0" />
        <mxCell id="1" parent="0" />
        <mxCell id="4UXB8YP7HQ1emLWVZMmA-3" value="" style="whiteSpace=wrap;html=1;aspect=fixed;shadow=0;dashed=1;" vertex="1" parent="1">
          <mxGeometry x="260" y="80" width="790" height="790" as="geometry" />
        </mxCell>
        <mxCell id="4UXB8YP7HQ1emLWVZMmA-7" style="edgeStyle=orthogonalEdgeStyle;rounded=0;orthogonalLoop=1;jettySize=auto;html=1;entryX=0;entryY=0.5;entryDx=0;entryDy=0;" edge="1" parent="1" source="4UXB8YP7HQ1emLWVZMmA-1" target="4UXB8YP7HQ1emLWVZMmA-4">
          <mxGeometry relative="1" as="geometry" />
        </mxCell>
        <mxCell id="4UXB8YP7HQ1emLWVZMmA-1" value="desktop" style="sketch=0;outlineConnect=0;gradientColor=none;fontColor=#545B64;strokeColor=none;fillColor=#879196;dashed=0;verticalLabelPosition=bottom;verticalAlign=top;align=center;html=1;fontSize=12;fontStyle=0;aspect=fixed;shape=mxgraph.aws4.illustration_desktop;pointerEvents=1" vertex="1" parent="1">
          <mxGeometry x="90" y="260" width="90" height="81.9" as="geometry" />
        </mxCell>
        <mxCell id="4UXB8YP7HQ1emLWVZMmA-5" style="edgeStyle=orthogonalEdgeStyle;rounded=0;orthogonalLoop=1;jettySize=auto;html=1;entryX=0;entryY=0.5;entryDx=0;entryDy=0;" edge="1" parent="1" source="4UXB8YP7HQ1emLWVZMmA-2" target="4UXB8YP7HQ1emLWVZMmA-4">
          <mxGeometry relative="1" as="geometry" />
        </mxCell>
        <mxCell id="4UXB8YP7HQ1emLWVZMmA-2" value="" style="outlineConnect=0;dashed=0;verticalLabelPosition=bottom;verticalAlign=top;align=center;html=1;shape=mxgraph.aws3.mobile_client;fillColor=#D2D3D3;gradientColor=none;" vertex="1" parent="1">
          <mxGeometry x="119.75" y="490" width="40.5" height="63" as="geometry" />
        </mxCell>
        <mxCell id="4UXB8YP7HQ1emLWVZMmA-4" value="Gateway" style="rounded=0;whiteSpace=wrap;html=1;" vertex="1" parent="1">
          <mxGeometry x="310" y="370" width="130" height="80" as="geometry" />
        </mxCell>
      </root>
    </mxGraphModel>
  </diagram>
</mxfile>
